# xmcd
#
# Track frame offsets:
#	150
#	17071
#	35779
#	49909
#	63398
#	80764
#	93381
#	111985
#	129154
#	152073
#
# Disc length: 2288 seconds
#
# Revision: 0
# Processed by: cddbd v1.5.1PL2 Copyright (c) Steve Scherf et al.
# Submitted via: dBpowerAMP V4.0
#
DISCID=8308ee0a
DTITLE=Tom Breiding - Two Tone Chevrolet
DYEAR=2004
DGENRE=Country
TTITLE0=Goodbye Town
TTITLE1=Gary's '55
TTITLE2=One Good Reason
TTITLE3=Back Roads
TTITLE4=Stock Car King
TTITLE5=Gettin' Used to Gettin' Over You
TTITLE6=One Way Ticket
TTITLE7=Dynamite Truck
TTITLE8=My Old Man and Me
TTITLE9=Saving Grace
EXTD=Submitted by Jonathan Woytek.  Tom Breiding is a local artist in the Pittsburgh area.  http://www.tombreiding.com
EXTT0=
EXTT1=
EXTT2=
EXTT3=
EXTT4=
EXTT5=
EXTT6=
EXTT7=
EXTT8=
EXTT9=
PLAYORDER=
